<svg width="16" height="16" viewBox="0 0 16 16" fill="none" xmlns="http://www.w3.org/2000/svg">
<path d="M14.2229 5.33324H11.2629L11.9518 1.89324C11.9747 1.77537 11.95 1.65319 11.8829 1.55359C11.8158 1.45399 11.7119 1.38512 11.594 1.36213C11.4761 1.33915 11.3539 1.36393 11.2543 1.43102C11.1547 1.49812 11.0859 1.60204 11.0629 1.71991L10.3562 5.33324H6.71621L7.4051 1.89324C7.41648 1.83488 7.41625 1.77484 7.40443 1.71657C7.39261 1.65829 7.36943 1.60291 7.3362 1.55359C7.30298 1.50427 7.26037 1.46198 7.2108 1.42913C7.16123 1.39628 7.10568 1.37351 7.04732 1.36213C6.92944 1.33915 6.80727 1.36393 6.70766 1.43102C6.60806 1.49812 6.53919 1.60204 6.51621 1.71991L5.80954 5.33324H2.66732C2.54944 5.33324 2.4364 5.38007 2.35305 5.46342C2.2697 5.54677 2.22287 5.65981 2.22287 5.77769C2.22287 5.89556 2.2697 6.00861 2.35305 6.09196C2.4364 6.17531 2.54944 6.22213 2.66732 6.22213H5.63176L4.92065 9.77769H1.77843C1.66055 9.77769 1.54751 9.82451 1.46416 9.90786C1.38081 9.99121 1.33398 10.1043 1.33398 10.2221C1.33398 10.34 1.38081 10.4531 1.46416 10.5364C1.54751 10.6198 1.66055 10.6666 1.77843 10.6666H4.73843L4.04954 14.1066C4.02736 14.2221 4.05186 14.3416 4.11767 14.4391C4.18348 14.5366 4.28524 14.604 4.40065 14.6266C4.43012 14.631 4.46007 14.631 4.48954 14.6266C4.59352 14.6287 4.69494 14.5942 4.77614 14.5293C4.85735 14.4643 4.91321 14.3729 4.93398 14.271L5.6451 10.6666H9.2851L8.59621 14.1066C8.57402 14.2221 8.59852 14.3416 8.66433 14.4391C8.73014 14.5366 8.8319 14.604 8.94732 14.6266C8.9753 14.6309 9.00378 14.6309 9.03176 14.6266C9.13574 14.6287 9.23716 14.5942 9.31837 14.5293C9.39957 14.4643 9.45543 14.3729 9.47621 14.271L10.1918 10.6666H13.334C13.4519 10.6666 13.5649 10.6198 13.6483 10.5364C13.7316 10.4531 13.7784 10.34 13.7784 10.2221C13.7784 10.1043 13.7316 9.99121 13.6483 9.90786C13.5649 9.82451 13.4519 9.77769 13.334 9.77769H10.3695L11.0851 6.22213H14.2229C14.3407 6.22213 14.4538 6.17531 14.5371 6.09196C14.6205 6.00861 14.6673 5.89556 14.6673 5.77769C14.6673 5.65981 14.6205 5.54677 14.5371 5.46342C14.4538 5.38007 14.3407 5.33324 14.2229 5.33324ZM9.46287 9.77769H5.82287L6.53843 6.22213H10.1784L9.46287 9.77769Z" fill="black"/>
</svg>
