<svg width="16" height="16" viewBox="0 0 16 16" fill="none" xmlns="http://www.w3.org/2000/svg">
<path fill-rule="evenodd" clip-rule="evenodd" d="M11.5356 1.04541C10.6009 1.22291 10.0012 1.83167 9.78806 2.81936C9.67393 3.34796 9.80406 4.00166 10.1484 4.62989L10.4043 5.09684L8.65565 6.83598C7.69386 7.79252 6.88041 8.55882 6.84792 8.53886C6.81551 8.5189 6.52161 8.02705 6.19481 7.44579L5.60073 6.38899L5.21507 6.76638L4.82949 7.14385L5.24519 7.84371C5.47378 8.22864 5.99937 9.10941 6.41311 9.80099C6.82678 10.4926 7.15709 11.0673 7.14705 11.0782C7.137 11.089 6.21506 10.604 5.09824 10.0002L3.06772 8.90254L2.70762 9.2603L2.34759 9.61806L3.46955 11.5551C4.08657 12.6205 4.60898 13.5226 4.63037 13.5597C4.68588 13.656 4.41901 13.5055 2.44711 12.3287L0.691875 11.2813L0.32842 11.6335C0.128568 11.8272 -0.0183814 12.001 0.00186497 12.0197C0.022193 12.0384 0.507127 12.3162 1.07966 12.6369C1.65211 12.9577 2.12055 13.2468 2.12055 13.2794C2.12055 13.312 1.99197 13.4625 1.83482 13.6138C1.48671 13.9491 1.47675 14.1223 1.78771 14.4313C2.14113 14.7825 2.41445 14.7497 2.8553 14.3034C3.0536 14.1026 3.25411 13.9385 3.30088 13.9387C3.34766 13.939 3.80639 14.1779 4.32031 14.4696L5.25466 15L5.65657 14.6005L6.05848 14.2012L4.98787 12.3118C4.39901 11.2726 3.92787 10.4118 3.94085 10.3988C3.95391 10.3859 4.82287 10.8514 5.87185 11.4333L7.77909 12.4914L8.18541 12.0876L8.59164 11.684L8.03691 10.695L7.48225 9.70608L9.40738 7.793L11.3326 5.87993L11.8716 6.05573C12.8848 6.38623 13.7243 6.2282 14.3716 5.58504C16.0839 3.88363 14.0166 0.574406 11.5356 1.04541ZM13.0248 2.52009C14.2638 3.35486 13.8643 5.10998 12.4625 4.98992C11.2934 4.88989 10.5468 3.38682 11.2776 2.60478C11.5304 2.3344 11.7123 2.26771 12.2141 2.26155C12.5576 2.25733 12.7044 2.30422 13.0248 2.52009Z" fill="black"/>
</svg>
